<svg xmlns="http://www.w3.org/2000/svg" xmlns:xlink="http://www.w3.org/1999/xlink" viewBox="0 0 500 500"><defs><clipPath id="freepik--clip-path--inject-2"><path d="M427.77,456.09s-1.35.7-5.61.7a16.87,16.87,0,0,1-5.62-.7l-5.35-52.53-4.65-45.68h11.23l4.61,45.23Z" style="fill:#999;stroke:#263238;stroke-linecap:round;stroke-linejoin:round"></path></clipPath><clipPath id="freepik--clip-path-2--inject-2"><path d="M344.77,357.88l-3,29.32-7,68.89s-1.35.7-5.61.7a16.87,16.87,0,0,1-5.62-.7l7.57-74.35,2.43-23.86Z" style="fill:#999;stroke:#263238;stroke-linecap:round;stroke-linejoin:round"></path></clipPath><clipPath id="freepik--clip-path-3--inject-2"><path d="M381.27,357.88v98.21s-1.35.7-5.61.7a16.87,16.87,0,0,1-5.62-.7V357.88Z" style="fill:#999;stroke:#263238;stroke-linecap:round;stroke-linejoin:round"></path></clipPath><clipPath id="freepik--clip-path-4--inject-2"><path d="M423.2,343.72V359.1a2.74,2.74,0,0,1-2.35,2.64,378.56,378.56,0,0,1-90.39,0,2.74,2.74,0,0,1-2.35-2.64V343.72a2.74,2.74,0,0,1,2.35-2.64,379.61,379.61,0,0,1,90.39,0A2.74,2.74,0,0,1,423.2,343.72Z" style="fill:#bfbfbf"></path></clipPath><clipPath id="freepik--clip-path-5--inject-2"><path d="M414.41,352.31c-3.69,6.33-20.31,5.35-20.31,5.35l-.29,1.21L375.2,437.21l2.36,3-2.36,8.11c-2.46,2.64-24.15-1.39-26.47-4.66l2.11-6.44s1.17-75.53,3-89.57v-.07a10,10,0,0,1,.39-1.91l-37.45,4.65s3.76,70.15,6.93,74.06.39,10.22.39,10.22l2,9.56s-9.82-.69-19.48-1c-2-.06-4-.1-5.86-.11a21.77,21.77,0,0,1-.82-2.66c-.51-1.95,1.44-5.81,1.44-5.81l-1.79-2.33s.94-6.91.94-9.07S276.44,343,278.75,338c7.7-16.79,47.93-27.75,65.85-31.86,5.28-1.22,8.63-1.84,8.63-1.84l57.32,3.64L412,308l4.88.31S418.11,346,414.41,352.31Z" style="fill:#92E3A9;stroke:#263238;stroke-linecap:round;stroke-linejoin:round"></path></clipPath><clipPath id="freepik--clip-path-6--inject-2"><path d="M435.82,242.91l-3.12,20.8s-17.23,7.57-20.83,13.65l-.85.12-4,.56-2.19-.64a121.6,121.6,0,0,0-16.3-3.57,25.33,25.33,0,0,0-5.76-.22l-11.66-18.17s18-2.49,30.5,1.78l6-.42.22-.19C409.52,255.16,422.08,245.18,435.82,242.91Z" style="fill:#92E3A9;stroke:#263238;stroke-linecap:round;stroke-linejoin:round"></path></clipPath><clipPath id="freepik--clip-path-7--inject-2"><rect x="198.82" y="192.64" width="28.03" height="20.55" transform="translate(-20.88 24.45) rotate(-6.27)" style="fill:#92E3A9;stroke:#263238;stroke-linecap:round;stroke-linejoin:round"></rect></clipPath><clipPath id="freepik--clip-path-8--inject-2"><rect x="230.11" y="189.06" width="28.03" height="20.55" transform="translate(-20.31 27.85) rotate(-6.27)" style="fill:#92E3A9;stroke:#263238;stroke-linecap:round;stroke-linejoin:round"></rect></clipPath><clipPath id="freepik--clip-path-9--inject-2"><rect x="261.41" y="185.48" width="28.03" height="20.55" transform="translate(-19.73 31.25) rotate(-6.27)" style="fill:#92E3A9;stroke:#263238;stroke-linecap:round;stroke-linejoin:round"></rect></clipPath><clipPath id="freepik--clip-path-10--inject-2"><rect x="192.33" y="109" width="91.06" height="66.75" transform="translate(-14.12 26.82) rotate(-6.27)" style="fill:#92E3A9;stroke:#263238;stroke-linecap:round;stroke-linejoin:round"></rect></clipPath></defs><g id="freepik--background-simple--inject-2"><path d="M58,448.06H269.17c.86-1.36,1.72-2.72,2.6-4.05,22.72-34.59,59.09-59.24,98.83-70.81,17.79-5.18,37.08-8.26,51.38-20.06,14.72-12.13,21.47-31.49,24.4-50.34,3.55-22.83,1.63-48.41-13.86-65.54-18.19-20.12-48.67-22.37-72.37-35.56C319.36,179,303.54,127.31,266.44,99,243,81.11,211.34,74.18,183,78.1c-40.19,5.57-78,32.5-89.36,72a99.81,99.81,0,0,0-3.44,35.41C92.05,209,97.12,232.88,92.34,256c-5.27,25.49-21.86,47-31.77,71.09-12.34,30-14,63.6-8.76,95.58A163.52,163.52,0,0,0,58,448.06Z" style="fill:#92E3A9"></path><path d="M58,448.06H269.17c.86-1.36,1.72-2.72,2.6-4.05,22.72-34.59,59.09-59.24,98.83-70.81,17.79-5.18,37.08-8.26,51.38-20.06,14.72-12.13,21.47-31.49,24.4-50.34,3.55-22.83,1.63-48.41-13.86-65.54-18.19-20.12-48.67-22.37-72.37-35.56C319.36,179,303.54,127.31,266.44,99,243,81.11,211.34,74.18,183,78.1c-40.19,5.57-78,32.5-89.36,72a99.81,99.81,0,0,0-3.44,35.41C92.05,209,97.12,232.88,92.34,256c-5.27,25.49-21.86,47-31.77,71.09-12.34,30-14,63.6-8.76,95.58A163.52,163.52,0,0,0,58,448.06Z" style="fill:#fff;opacity:0.7000000000000001"></path></g><g id="freepik--Window--inject-2"><polyline points="276.21 123.33 276.21 107.66 433.03 107.66 433.03 264.47 289.83 264.47" style="fill:none;stroke:#263238;stroke-linecap:round;stroke-linejoin:round"></polyline><line x1="276.21" y1="264.47" x2="276.21" y2="131.28" style="fill:none;stroke:#263238;stroke-linecap:round;stroke-linejoin:round"></line><polyline points="283.71 164.9 283.71 115.25 352.33 115.25 352.33 183.87 283.71 183.87 283.71 168.99" style="fill:none;stroke:#263238;stroke-linecap:round;stroke-linejoin:round"></polyline><polyline points="425.53 159.05 425.53 183.87 356.91 183.87 356.91 115.25 425.53 115.25 425.53 151.79" style="fill:none;stroke:#263238;stroke-linecap:round;stroke-linejoin:round"></polyline><polyline points="352.33 188.25 352.33 256.87 283.71 256.87 283.71 188.25 347.26 188.25" style="fill:none;stroke:#263238;stroke-linecap:round;stroke-linejoin:round"></polyline><polyline points="375.53 256.87 356.91 256.87 356.91 188.25 425.53 188.25 425.53 256.87 385.33 256.87" style="fill:none;stroke:#263238;stroke-linecap:round;stroke-linejoin:round"></polyline></g><g id="freepik--Lamp--inject-2"><line x1="111.3" y1="101.51" x2="111.3" y2="105.42" style="fill:none;stroke:#263238;stroke-linecap:round;stroke-linejoin:round"></line><line x1="111.5" y1="76.21" x2="111.3" y2="99.21" style="fill:none;stroke:#263238;stroke-linecap:round;stroke-linejoin:round"></line><line x1="111.3" y1="60.77" x2="111.48" y2="73.58" style="fill:none;stroke:#263238;stroke-linecap:round;stroke-linejoin:round"></line><path d="M125.15,127.89h4.36c-7.3-27.3-29.12-27.3-36.42,0h19.4" style="fill:none;stroke:#263238;stroke-linecap:round;stroke-linejoin:round"></path><line x1="118.62" y1="127.89" x2="121.44" y2="127.89" style="fill:none;stroke:#263238;stroke-linecap:round;stroke-linejoin:round"></line><line x1="111.3" y1="132.94" x2="111.3" y2="140.26" style="fill:none;stroke:#263238;stroke-linecap:round;stroke-linejoin:round"></line><line x1="120.03" y1="132.94" x2="122.37" y2="138.08" style="fill:none;stroke:#263238;stroke-linecap:round;stroke-linejoin:round"></line><line x1="102.4" y1="132.94" x2="100.02" y2="138.08" style="fill:none;stroke:#263238;stroke-linecap:round;stroke-linejoin:round"></line></g><g id="freepik--Floor--inject-2"><line x1="34.38" y1="448.44" x2="460.31" y2="448.44" style="fill:none;stroke:#263238;stroke-linecap:round;stroke-linejoin:round"></line></g><g id="freepik--website-2--inject-2"><polygon points="239.79 263.83 239.79 384.36 223.36 400.78 136.77 400.78 136.77 263.83 239.79 263.83" style="fill:#fff;stroke:#263238;stroke-linecap:round;stroke-linejoin:round"></polygon><rect x="136.77" y="263.83" width="103.01" height="11.67" style="fill:#92E3A9;stroke:#263238;stroke-linecap:round;stroke-linejoin:round"></rect><polygon points="239.86 384.29 223.36 400.78 223.36 384.29 239.86 384.29" style="fill:#bfbfbf;stroke:#263238;stroke-linecap:round;stroke-linejoin:round"></polygon><path d="M188.28,272.3l1.14,3.86s-2.9,1.95-1.14,3.36l1.76,1.41s-1.19,4.13.79,5.22,8.51-.33,10.09-2.77-3.87-4.95-3.87-4.95,1.6-2,.71-2.93-4.06-.53-4.06-.53l-2.17-3.66Z" style="fill-opacity:0.7000000000000001;opacity:0.30000000000000004"></path><ellipse cx="189.42" cy="263.03" rx="7.34" ry="6.88" style="fill:#263238"></ellipse><path d="M196.19,268.82c0,2.76-3,5-6.77,5s-6.77-2.23-6.77-5,3-5,6.77-5S196.19,266.06,196.19,268.82Z" style="fill:#263238"></path><path d="M193.46,267.57a6.12,6.12,0,0,0,1.92-2.24" style="fill:none;stroke:#fff;stroke-linecap:round;stroke-linejoin:round"></path><path d="M183.61,265.63a7,7,0,0,0,5.81,3.19" style="fill:none;stroke:#fff;stroke-linecap:round;stroke-linejoin:round"></path><rect x="142.75" y="292.29" width="91.06" height="55.39" style="fill:#263238;stroke:#263238;stroke-linecap:round;stroke-linejoin:round"></rect><polygon points="176.76 310.22 176.76 333.28 202.07 321.75 176.76 310.22" style="fill:#92E3A9;stroke:#263238;stroke-linecap:round;stroke-linejoin:round"></polygon><path d="M175.61,283.78H143.47a.69.69,0,0,0,0,1.38h32.14a.69.69,0,0,0,0-1.38Z" style="fill:#263238"></path><path d="M232.61,366.78H143.47a.69.69,0,0,0,0,1.38h89.14a.69.69,0,1,0,0-1.38Z" style="fill:#263238"></path><path d="M232.61,372.78H143.47a.69.69,0,0,0,0,1.38h89.14a.69.69,0,1,0,0-1.38Z" style="fill:#263238"></path><path d="M232.61,378.78H143.47a.69.69,0,0,0,0,1.38h89.14a.69.69,0,1,0,0-1.38Z" style="fill:#263238"></path><path d="M212.61,384.78H143.47a.69.69,0,0,0,0,1.38h69.14a.69.69,0,1,0,0-1.38Z" style="fill:#263238"></path><path d="M232.61,360.78H143.47a.69.69,0,0,0,0,1.38h89.14a.69.69,0,1,0,0-1.38Z" style="fill:#263238"></path><path d="M175.61,353.78H143.47a.69.69,0,0,0,0,1.38h32.14a.69.69,0,1,0,0-1.38Z" style="fill:#263238"></path><rect x="142.75" y="343.88" width="91.06" height="3.8" style="fill:#bfbfbf;stroke:#263238;stroke-linecap:round;stroke-linejoin:round"></rect><rect x="142.75" y="343.88" width="49.61" height="3.8" style="fill:#92E3A9;stroke:#263238;stroke-linecap:round;stroke-linejoin:round"></rect></g><g id="freepik--website-1--inject-2"><polygon points="165.33 164.41 165.33 284.94 148.91 301.36 62.31 301.36 62.31 164.41 165.33 164.41" style="fill:#fff;stroke:#263238;stroke-linecap:round;stroke-linejoin:round"></polygon><path d="M104.89,182.89H69.1a.77.77,0,1,0,0,1.54h35.79a.77.77,0,0,0,0-1.54Z" style="fill:#263238"></path><path d="M126.24,222H94.85a.77.77,0,1,0,0,1.54h31.39a.77.77,0,0,0,0-1.54Z" style="fill:#263238"></path><path d="M126.24,227.32H94.44a.77.77,0,1,0,0,1.54h31.8a.77.77,0,0,0,0-1.54Z" style="fill:#263238"></path><path d="M126.24,232.68H94.44a.77.77,0,1,0,0,1.54h31.8a.77.77,0,0,0,0-1.54Z" style="fill:#263238"></path><path d="M116.11,238.05H94.44a.77.77,0,1,0,0,1.54h21.67a.77.77,0,1,0,0-1.54Z" style="fill:#263238"></path><path d="M126.24,246.77H81.85a.77.77,0,1,0,0,1.54h44.39a.77.77,0,0,0,0-1.54Z" style="fill:#263238"></path><path d="M126.24,252.14H68.44a.77.77,0,1,0,0,1.54h57.8a.77.77,0,0,0,0-1.54Z" style="fill:#263238"></path><path d="M126.24,257.5H68.44a.77.77,0,1,0,0,1.54h57.8a.77.77,0,0,0,0-1.54Z" style="fill:#263238"></path><path d="M126.24,262.87H68.44a.77.77,0,1,0,0,1.54h57.8a.77.77,0,0,0,0-1.54Z" style="fill:#263238"></path><path d="M106.24,268.24H68.44a.77.77,0,0,0,0,1.54h37.8a.77.77,0,0,0,0-1.54Z" style="fill:#263238"></path><path d="M126.24,276.77H81.85a.77.77,0,0,0,0,1.54h44.39a.77.77,0,1,0,0-1.54Z" style="fill:#263238"></path><path d="M126.24,282.14H68.44a.77.77,0,0,0,0,1.54h57.8a.77.77,0,1,0,0-1.54Z" style="fill:#263238"></path><path d="M106.24,287.5H68.44a.77.77,0,1,0,0,1.54h37.8a.77.77,0,0,0,0-1.54Z" style="fill:#263238"></path><rect x="62.32" y="164.41" width="103.01" height="11.67" style="fill:#92E3A9;stroke:#263238;stroke-linecap:round;stroke-linejoin:round"></rect><path d="M113.82,172.88l1.14,3.86s-2.9,1.95-1.14,3.36l1.76,1.41s-1.18,4.13.8,5.22,8.5-.33,10.08-2.77-3.87-5-3.87-5,1.6-2,.71-2.93-4.06-.53-4.06-.53l-2.17-3.66Z" style="fill-opacity:0.7000000000000001;opacity:0.30000000000000004"></path><path d="M122.31,163.61a7.36,7.36,0,1,1-7.35-6.88A7.13,7.13,0,0,1,122.31,163.61Z" style="fill:#263238"></path><ellipse cx="114.96" cy="169.4" rx="6.77" ry="4.99" style="fill:#263238"></ellipse><path d="M119,168.14a6.26,6.26,0,0,0,1.92-2.23" style="fill:none;stroke:#fff;stroke-linecap:round;stroke-linejoin:round"></path><path d="M109.16,166.2a6.93,6.93,0,0,0,5.8,3.2" style="fill:none;stroke:#fff;stroke-linecap:round;stroke-linejoin:round"></path><line x1="134.12" y1="179.49" x2="134.12" y2="298.28" style="fill:none;stroke:#263238;stroke-linecap:round;stroke-linejoin:round"></line><path d="M159,182.89H139.61a.77.77,0,0,0,0,1.54H159a.77.77,0,1,0,0-1.54Z" style="fill:#263238"></path><path d="M159,190.89H139.61a.77.77,0,0,0,0,1.54H159a.77.77,0,1,0,0-1.54Z" style="fill:#263238"></path><path d="M159,198.84H139.61a.77.77,0,1,0,0,1.54H159a.77.77,0,1,0,0-1.54Z" style="fill:#263238"></path><path d="M159,206.79H139.61a.77.77,0,0,0,0,1.54H159a.77.77,0,1,0,0-1.54Z" style="fill:#263238"></path><path d="M159,214.74H139.61a.77.77,0,1,0,0,1.54H159a.77.77,0,0,0,0-1.54Z" style="fill:#263238"></path><path d="M159,222.69H139.61a.77.77,0,1,0,0,1.54H159a.77.77,0,1,0,0-1.54Z" style="fill:#263238"></path><path d="M159,230.64H139.61a.77.77,0,0,0,0,1.54H159a.77.77,0,1,0,0-1.54Z" style="fill:#263238"></path><path d="M159,238.59H139.61a.77.77,0,1,0,0,1.54H159a.77.77,0,1,0,0-1.54Z" style="fill:#263238"></path><path d="M159,246.54H139.61a.77.77,0,0,0,0,1.54H159a.77.77,0,1,0,0-1.54Z" style="fill:#263238"></path><path d="M159,254.49H139.61a.77.77,0,1,0,0,1.54H159a.77.77,0,0,0,0-1.54Z" style="fill:#263238"></path><path d="M159,262.44H139.61a.77.77,0,0,0,0,1.54H159a.77.77,0,0,0,0-1.54Z" style="fill:#263238"></path><path d="M159,270.39H139.61a.77.77,0,1,0,0,1.54H159a.77.77,0,0,0,0-1.54Z" style="fill:#263238"></path><path d="M159,278.34H139.61a.77.77,0,1,0,0,1.54H159a.77.77,0,0,0,0-1.54Z" style="fill:#263238"></path><path d="M159,286.29H139.61a.78.78,0,0,0,0,1.55H159a.78.78,0,0,0,0-1.55Z" style="fill:#263238"></path><polygon points="165.4 284.87 148.91 301.36 148.91 284.87 165.4 284.87" style="fill:#bfbfbf;stroke:#263238;stroke-linecap:round;stroke-linejoin:round"></polygon><rect x="67.97" y="189.77" width="60.35" height="25.74" style="fill:#757575;stroke:#263238;stroke-linecap:round;stroke-linejoin:round"></rect><polygon points="67.97 205.42 69.86 202.64 70.91 203.37 73.02 199.61 74.78 204.1 75.92 203.37 78.17 208.33 80.54 202.64 81.72 203.97 85.02 195.4 87.28 201.86 88.45 201.86 90.3 205.81 91.94 202.64 93.72 207.56 98.14 198.3 100.58 203.37 101.37 201.86 102.17 202.64 105.66 193.81 110.6 207.51 113.25 202.92 113.82 205.02 116.28 200.38 118.25 203.97 119.97 201.07 122.31 205.29 125.9 196.98 127.01 198.84 128.32 195.24 128.32 215.51 67.97 215.51 67.97 205.42" style="fill:#999;stroke:#263238;stroke-linecap:round;stroke-linejoin:round"></polygon><path d="M88.85,230.54v.08A9.83,9.83,0,0,1,79,240.36a9.68,9.68,0,0,1-5.72-1.85A9.82,9.82,0,0,1,79,220.71a9.88,9.88,0,0,1,8,4.08,9.9,9.9,0,0,1,1.86,5.75Z" style="fill:#fff;stroke:#263238;stroke-linecap:round;stroke-linejoin:round"></path><path d="M88.85,230.54A9.83,9.83,0,0,1,79,240.36a9.68,9.68,0,0,1-5.72-1.85l5.72-8,9.45-2.69A9.5,9.5,0,0,1,88.85,230.54Z" style="fill:#bfbfbf;stroke:#263238;stroke-miterlimit:10"></path><path d="M88.85,230.54v.08L79,230.54,83.89,222a9.74,9.74,0,0,1,4.58,5.84A9.5,9.5,0,0,1,88.85,230.54Z" style="fill:#999;stroke:#263238;stroke-linecap:round;stroke-linejoin:round"></path><path d="M87,224.79v0l-8,5.73v-9.83a9.88,9.88,0,0,1,8,4.08Z" style="fill:#757575;stroke:#263238;stroke-linecap:round;stroke-linejoin:round"></path></g><g id="freepik--Character--inject-2"><path d="M427.77,456.09s-1.35.7-5.61.7a16.87,16.87,0,0,1-5.62-.7l-5.35-52.53-4.65-45.68h11.23l4.61,45.23Z" style="fill:#999"></path><g style="clip-path:url(#freepik--clip-path--inject-2)"><path d="M422.38,403.11q-5.69.47-11.19.45l-4.65-45.68h11.23Z" style="fill-opacity:0.7000000000000001;opacity:0.30000000000000004"></path></g><path d="M427.77,456.09s-1.35.7-5.61.7a16.87,16.87,0,0,1-5.62-.7l-5.35-52.53-4.65-45.68h11.23l4.61,45.23Z" style="fill:none;stroke:#263238;stroke-linecap:round;stroke-linejoin:round"></path><path d="M344.77,357.88l-3,29.32-7,68.89s-1.35.7-5.61.7a16.87,16.87,0,0,1-5.62-.7l7.57-74.35,2.43-23.86Z" style="fill:#999"></path><g style="clip-path:url(#freepik--clip-path-2--inject-2)"><path d="M333.54,357.88h11.23l-3,29.32c-4-1.88-7.56-3.74-10.67-5.46Z" style="fill-opacity:0.7000000000000001;opacity:0.30000000000000004"></path></g><path d="M344.77,357.88l-3,29.32-7,68.89s-1.35.7-5.61.7a16.87,16.87,0,0,1-5.62-.7l7.57-74.35,2.43-23.86Z" style="fill:none;stroke:#263238;stroke-linecap:round;stroke-linejoin:round"></path><path d="M381.27,357.88v98.21s-1.35.7-5.61.7a16.87,16.87,0,0,1-5.62-.7V357.88Z" style="fill:#999"></path><g style="clip-path:url(#freepik--clip-path-3--inject-2)"><path d="M381.27,357.88v16.35a54.53,54.53,0,0,0-11.23.37V357.88Z" style="fill-opacity:0.7000000000000001;opacity:0.30000000000000004"></path></g><path d="M381.27,357.88v98.21s-1.35.7-5.61.7a16.87,16.87,0,0,1-5.62-.7V357.88Z" style="fill:none;stroke:#263238;stroke-linecap:round;stroke-linejoin:round"></path><path d="M423.2,343.72V359.1a2.74,2.74,0,0,1-2.35,2.64,378.56,378.56,0,0,1-90.39,0,2.74,2.74,0,0,1-2.35-2.64V343.72a2.74,2.74,0,0,1,2.35-2.64,379.61,379.61,0,0,1,90.39,0A2.74,2.74,0,0,1,423.2,343.72Z" style="fill:#bfbfbf"></path><g style="clip-path:url(#freepik--clip-path-4--inject-2)"><path d="M423.2,343.72v8.64c-9,3.56-23.28,3.15-38.25,2.67-24.51-.77-26.13-5.55-35.55-4.38-4.25.53-13.27.4-21.29-.53v-6.4a2.74,2.74,0,0,1,2.35-2.64,379.61,379.61,0,0,1,90.39,0A2.74,2.74,0,0,1,423.2,343.72Z" style="fill-opacity:0.7000000000000001;opacity:0.30000000000000004"></path></g><path d="M420.85,361.74a378.56,378.56,0,0,1-90.39,0,2.74,2.74,0,0,1-2.35-2.64V343.72a2.74,2.74,0,0,1,2.35-2.64,379.61,379.61,0,0,1,90.39,0,2.74,2.74,0,0,1,2.35,2.64V359.1A2.74,2.74,0,0,1,420.85,361.74Z" style="fill:none;stroke:#263238;stroke-linecap:round;stroke-linejoin:round"></path><path d="M362,213.87l-31.1,32.33c-7.94-7.78-29.39-32.64-29.39-32.64L293.9,224.5s11.61,19.4,18.46,30.69,15.3,16.08,15.56,16.58,34-24,34-24Z" style="fill:#fff;stroke:#263238;stroke-linecap:round;stroke-linejoin:round"></path><path d="M296.77,224.5s-5.67,1.21-8.2-1.81-13.15-10.28-13.15-10.28l5.91-19.79,16.49,13,3.89,9.79" style="fill:#fff;stroke:#263238;stroke-linecap:round;stroke-linejoin:round"></path><path d="M362,210.56c-5.54-.13-23.74,24.48-23.74,24.48l-2,1.6s5.31,18.83,11.59,24.62l5.89-2.86h3.47Z" style="fill:#263238"></path><path d="M440.79,255.19s5.57,30.33,4.37,35.07-2.79,11.87-10,11.87S426,277.08,426,277.08l-3.95-11.87Z" style="fill:#fff;stroke:#263238;stroke-linecap:round;stroke-linejoin:round"></path><path d="M322.11,434.59s5.54,14.77,3.69,24.53c0,0-19.25,1.06-21.89,1.32s-13.74,3.69-16,3.16S277,462,277,462s-1.32-6.86,1.84-8.17,21.48-3.17,25.43-17.67Z" style="fill:#263238"></path><path d="M309.29,447.25a8.32,8.32,0,0,0-7.1-3.43" style="fill:none;stroke:#fff;stroke-linecap:round;stroke-linejoin:round"></path><path d="M306.41,450.15a12,12,0,0,0-7.64-3.42" style="fill:none;stroke:#fff;stroke-linecap:round;stroke-linejoin:round"></path><path d="M300.74,453.19s-2.69-2.94-6.19-3" style="fill:none;stroke:#fff;stroke-linecap:round;stroke-linejoin:round"></path><path d="M352.38,442.77,349.06,451s-6.69,3.64-8,5-1.32,7.7-1.32,7.7A69.76,69.76,0,0,0,363,465.1a73.81,73.81,0,0,0,12.21-2.55l-1.86-16.62Z" style="fill:#263238"></path><path d="M365.89,455.3s-7.65-3.43-10-3.63a64.5,64.5,0,0,0-6.47,0" style="fill:none;stroke:#fff;stroke-linecap:round;stroke-linejoin:round"></path><path d="M360.48,456.09s-7.12-2.79-9.76-2.65a35.83,35.83,0,0,1-4.35,0" style="fill:none;stroke:#fff;stroke-linecap:round;stroke-linejoin:round"></path><path d="M365.89,450.81s-4.49-1.32-8.71-2.37-5.8,0-5.8,0" style="fill:none;stroke:#fff;stroke-linecap:round;stroke-linejoin:round"></path><path d="M414.41,352.31c-3.69,6.33-20.31,5.35-20.31,5.35l-.29,1.21L375.2,437.21l2.36,3-2.36,8.11c-2.46,2.64-24.15-1.39-26.47-4.66l2.11-6.44s1.17-75.53,3-89.57v-.07a10,10,0,0,1,.39-1.91l-37.45,4.65s3.76,70.15,6.93,74.06.39,10.22.39,10.22l2,9.56s-9.82-.69-19.48-1c-2-.06-4-.1-5.86-.11a21.77,21.77,0,0,1-.82-2.66c-.51-1.95,1.44-5.81,1.44-5.81l-1.79-2.33s.94-6.91.94-9.07S276.44,343,278.75,338c7.7-16.79,47.93-27.75,65.85-31.86,5.28-1.22,8.63-1.84,8.63-1.84l57.32,3.64L412,308l4.88.31S418.11,346,414.41,352.31Z" style="fill:#92E3A9"></path><g style="clip-path:url(#freepik--clip-path-5--inject-2)"><path d="M397.62,317.73s-32.61,2.91-41.53,14.54c-1.36,1.76-1.81,13.39-1.81,13.39l-37.45,4.65s3.76,70.15,6.93,74.06.39,10.22.39,10.22l2,9.56s-9.82-.69-19.48-1c-3.45-3.7-2.42-7-2.42-7,9.13,1.94,14.35-1.69,14.35-1.69s-10.55-8.17-9.34-13.44-1.53-24-1.53-24c-1.37,7.91-3.08,9.87-3.08,9.87l.69-17.87s-20.4-21.28-11-34,52.49-25,47.74-26.57-5-6.71-5-6.71c7.38-1.71,17.93-.13,17.19-2.41-.56-1.7-6.64-9.42-9.68-13.22,5.28-1.22,8.63-1.84,8.63-1.84l57.32,3.64-25.34,2.2Z" style="fill-opacity:0.7000000000000001;opacity:0.30000000000000004"></path><path d="M414.41,352.31c-3.69,6.33-20.31,5.35-20.31,5.35,1.24-2.32,5.65-5.68,6.6-9,1.51-5.34,4.43,6.13,4.43,6.13,10.38-4.31,7.11-43.55,6.83-46.74l4.88.31S418.11,346,414.41,352.31Z" style="fill-opacity:0.7000000000000001;opacity:0.30000000000000004"></path></g><path d="M414.41,352.31c-3.69,6.33-20.31,5.35-20.31,5.35l-.29,1.21L375.2,437.21l2.36,3-2.36,8.11c-2.46,2.64-24.15-1.39-26.47-4.66l2.11-6.44s1.17-75.53,3-89.57v-.07a10,10,0,0,1,.39-1.91l-37.45,4.65s3.76,70.15,6.93,74.06.39,10.22.39,10.22l2,9.56s-9.82-.69-19.48-1c-2-.06-4-.1-5.86-.11a21.77,21.77,0,0,1-.82-2.66c-.51-1.95,1.44-5.81,1.44-5.81l-1.79-2.33s.94-6.91.94-9.07S276.44,343,278.75,338c7.7-16.79,47.93-27.75,65.85-31.86,5.28-1.22,8.63-1.84,8.63-1.84l57.32,3.64L412,308l4.88.31S418.11,346,414.41,352.31Z" style="fill:none;stroke:#263238;stroke-linecap:round;stroke-linejoin:round"></path><path d="M354.28,345.66s-.26-12.47,2.9-14.85,18.2-2.77,22.16-2,13.05,9.89,13.05,9.89" style="fill:none;stroke:#263238;stroke-linecap:round;stroke-linejoin:round"></path><path d="M386.91,319.34s-23.79,4.35-29.73,11.47" style="fill:none;stroke:#263238;stroke-linecap:round;stroke-linejoin:round"></path><path d="M369.2,324.05s-29.51,1.22-40.54-4.71" style="fill:none;stroke:#263238;stroke-linecap:round;stroke-linejoin:round"></path><path d="M301.46,360.88c4.8,3.56,15.37-10.57,15.37-10.57s-11.05,1.69-11.46,0,3.92-1.69,3.92-1.69" style="fill:none;stroke:#263238;stroke-linecap:round;stroke-linejoin:round"></path><path d="M309.14,372.75s1.86,29.67-7.68,38.77" style="fill:none;stroke:#263238;stroke-linecap:round;stroke-linejoin:round"></path><path d="M394.1,357.66s6.6-6.67,6.6-9,2.34,3.77,0,6.41" style="fill:none;stroke:#263238;stroke-linecap:round;stroke-linejoin:round"></path><path d="M381.32,369.58s-14.09,32.84-24.14,36.4" style="fill:none;stroke:#263238;stroke-linecap:round;stroke-linejoin:round"></path><path d="M375.2,437.21s-10.9,2.26-16-2.62" style="fill:none;stroke:#263238;stroke-linecap:round;stroke-linejoin:round"></path><path d="M301.46,434.59s9.44,4,15.37,3.14" style="fill:none;stroke:#263238;stroke-linecap:round;stroke-linejoin:round"></path><path d="M436.14,227.38c-4.05-8.71-30.06-13.53-42.69-15.33s-26.09-1.23-31.5-1.49-9.09,29.75-9.09,29.75,2,42.46,2.31,51.48a3.84,3.84,0,0,1-.58,4.26,8.1,8.1,0,0,0-2,4.61l-3.82,3.4s15.92,6.76,24.25,14.75c9.61,9.22,20.43-21.75,44.61,15,0,0,3.62-6.59,3.05-8.09s1.64-13.28,1.13-14.61.25-39.88.25-39.88l2.59,1.73s5.72-7.13,19.27-1.52l1.42-6.9-2-1.88S440.05,235.8,436.14,227.38Z" style="fill:#263238"></path><path d="M411.14,195.47s-7.48,4.48-4.46,20.18c0,0-11.28,7.22-21.65-1.2,0,0,3.12-12.22.76-14.83" style="fill:#fff;stroke:#263238;stroke-linecap:round;stroke-linejoin:round"></path><path d="M394.85,163.44s-6.4-1.3-9.06,6.52a20.28,20.28,0,0,0,.75,14.54L399,173.93Z" style="fill:#263238"></path><path d="M408.68,200c8.82-9.48,15.55-25.69,3.41-32.93-23.41-14-32.65,10.46-29.79,33.84.88,7.19,10.71,4.51,17.94,2.3" style="fill:#fff;stroke:#263238;stroke-linecap:round;stroke-linejoin:round"></path><path d="M393,177.62s3.91,1.27,4.81,3.45" style="fill:none;stroke:#263238;stroke-linecap:round;stroke-linejoin:round"></path><path d="M387.29,176.27a3.09,3.09,0,0,0-3,0" style="fill:none;stroke:#263238;stroke-linecap:round;stroke-linejoin:round"></path><ellipse cx="393.45" cy="183.2" rx="1.3" ry="0.83" transform="matrix(0.15, -0.99, 0.99, 0.15, 154.12, 545.26)" style="fill:#263238"></ellipse><ellipse cx="384.95" cy="180.63" rx="1.3" ry="0.83" transform="matrix(0.15, -0.99, 0.99, 0.15, 149.42, 534.67)" style="fill:#263238"></ellipse><path d="M405.58,188.4s-4,5.21-6.62,6.81a7.62,7.62,0,0,1-5.51.8s-3-4.11-7.66-4.41a8.93,8.93,0,0,0-3.93-1.57l.57-6s-4.21,12.75-4.11,17.39,11.31,8.45,17.08,7.45,9.1-9.71,11.27-18C406.84,190.22,405.58,188.4,405.58,188.4Z" style="fill:#263238"></path><path d="M387.74,179c0,1.12-6.39,7.66-6.54,9.17s5.49,1.88,5.49,1.88" style="fill:#fff;stroke:#263238;stroke-linecap:round;stroke-linejoin:round"></path><path d="M382.33,194.41s4.39,2.39,8.41,2.09" style="fill:none;stroke:#fff;stroke-linecap:round;stroke-linejoin:round"></path><path d="M405.68,171.36c1.53-1.13-2-3.61-4.11-3.61s-9.72-.8-9.72-.8-3.41-4.91.85-7.51S403.57,158,403.57,158a3.54,3.54,0,0,0-2.2,1.11s5.41.1,7.71,2.1,3.61,3.91,6.12,5.41,5.61,8.92,4.31,15-5.17,16.77-11.31,19.71c0,0-2.05-.32-.72-1.67,6.21-6.31.7-19.09-.81-8.85l-2-1.33a15.13,15.13,0,0,1,.52-3.35C405.78,183.39,398.46,176.67,405.68,171.36Z" style="fill:#263238"></path><path d="M408.38,187.8s4-4.3,6.21-2.65.41,6.95-.9,8.26-2.3,1.53-4.11,3.61-3.9,1.23-3.5-.49" style="fill:#fff;stroke:#263238;stroke-linecap:round;stroke-linejoin:round"></path><path d="M445.16,290.26c-1.21,4.75-2.79,11.87-10,11.87s-28.44-21.36-28.44-21.36l8.95-7.16L426,277.08s7.79,1.58,10.82,4.22" style="fill:#fff;stroke:#263238;stroke-linecap:round;stroke-linejoin:round"></path><path d="M406.68,218.53s-12.95,6.59-21.73,1.05" style="fill:none;stroke:#fff;stroke-linecap:round;stroke-linejoin:round"></path><path d="M359.56,294.48S378.5,309,392.5,308.73" style="fill:none;stroke:#fff;stroke-linecap:round;stroke-linejoin:round"></path><path d="M404.06,270.42S389.89,294.75,368,289.21" style="fill:none;stroke:#fff;stroke-linecap:round;stroke-linejoin:round"></path><path d="M425.92,225.78s-15.14,13.78-10.29,25.28" style="fill:none;stroke:#fff;stroke-linecap:round;stroke-linejoin:round"></path><path d="M432.85,244.52l-2.17-2.7s-18.28,2.12-26.46,13c0,0-15.05-7.11-28.55-3.65l-.4,4.85,29.6,17.7L416.45,269Z" style="fill:#fff;stroke:#263238;stroke-linecap:round;stroke-linejoin:round"></path><path d="M435.82,242.91l-3.12,20.8s-17.23,7.57-20.83,13.65l-.85.12-4,.56-2.19-.64a121.6,121.6,0,0,0-16.3-3.57,25.33,25.33,0,0,0-5.76-.22l-11.66-18.17s18-2.49,30.5,1.78l6-.42.22-.19C409.52,255.16,422.08,245.18,435.82,242.91Z" style="fill:#92E3A9"></path><g style="clip-path:url(#freepik--clip-path-6--inject-2)"><path d="M410.8,272.63l-3.06-16c1.78-1.45,14.34-11.43,28.08-13.7l-3.12,20.8s-17.23,7.57-20.83,13.65l-.85.12Z" style="fill-opacity:0.7000000000000001;opacity:0.30000000000000004"></path><path d="M404.87,273.76l-.09,3.64a121.6,121.6,0,0,0-16.3-3.57c1.16-13.31,13.36-15.43,13.36-15.43Z" style="fill-opacity:0.7000000000000001;opacity:0.30000000000000004"></path></g><path d="M435.82,242.91l-3.12,20.8s-17.23,7.57-20.83,13.65l-.85.12-4,.56-2.19-.64a121.6,121.6,0,0,0-16.3-3.57,25.33,25.33,0,0,0-5.76-.22l-11.66-18.17s18-2.49,30.5,1.78l6-.42.22-.19C409.52,255.16,422.08,245.18,435.82,242.91Z" style="fill:none;stroke:#263238;stroke-linecap:round;stroke-linejoin:round"></path><path d="M417.05,275.1c0-2.1,1.1-8.19,1.84-8.75s.46-4.61,1.85-6.43-1.54-1.81-3.21-1-4.25,5.17-5.09,5.87a9.2,9.2,0,0,1-4.83,1.26c-1.26-.14-8.77-5.2-10.18-5-.89.11-9.24-.84-9.24-.84s-2,1.82-.84,2.52,3.08,1.95,3.08,1.95-2.24,1.4-.56,3.08a17.3,17.3,0,0,1,2.93,4.84s11.75,9.47,17.92,9.86" style="fill:#fff;stroke:#263238;stroke-linecap:round;stroke-linejoin:round"></path><path d="M390.43,264.67a15.39,15.39,0,0,1,4.73,1.33" style="fill:none;stroke:#263238;stroke-linecap:round;stroke-linejoin:round"></path><path d="M396.61,268s-.52,2.12-.66,2.44,1.72,2.4,1.45,3.34,1.9,3.51,1.9,3.51" style="fill:none;stroke:#263238;stroke-linecap:round;stroke-linejoin:round"></path><path d="M394.5,270.42s-4.21-2.11-4.63-2.67" style="fill:none;stroke:#263238;stroke-linecap:round;stroke-linejoin:round"></path><path d="M353.89,347.57a10,10,0,0,1,.39-1.91Z" style="fill-opacity:0.7000000000000001;opacity:0.30000000000000004"></path><path d="M393.81,358.87a2.18,2.18,0,0,1,.29-1.21Z" style="fill-opacity:0.7000000000000001;opacity:0.30000000000000004"></path><path d="M359.56,216.06s-7.93,20.44-2.38,36.48" style="fill:none;stroke:#fff;stroke-linecap:round;stroke-linejoin:round"></path><polygon points="283.54 86.57 296.7 206.38 282.17 224.5 196.1 233.95 181.14 97.82 283.54 86.57" style="fill:#fff;stroke:#263238;stroke-linecap:round;stroke-linejoin:round"></polygon><rect x="181.48" y="92.16" width="103.01" height="11.67" transform="matrix(0.99, -0.11, 0.11, 0.99, -9.31, 26.03)" style="fill:#92E3A9;stroke:#263238;stroke-linecap:round;stroke-linejoin:round"></rect><path d="M229.57,183l-31.94,3.5a.71.71,0,0,0-.62.77.7.7,0,0,0,.77.61l31.94-3.51a.69.69,0,1,0-.15-1.37Z" style="fill:#263238"></path><polygon points="296.77 206.3 282.17 224.5 280.37 208.1 296.77 206.3" style="fill:#bfbfbf;stroke:#263238;stroke-linecap:round;stroke-linejoin:round"></polygon><rect x="198.82" y="192.64" width="28.03" height="20.55" transform="translate(-20.88 24.45) rotate(-6.27)" style="fill:#92E3A9"></rect><g style="clip-path:url(#freepik--clip-path-7--inject-2)"><rect x="198.82" y="192.64" width="28.03" height="20.55" transform="translate(-20.88 24.45) rotate(-6.27)" style="fill:#fff;stroke:#263238;stroke-linecap:round;stroke-linejoin:round;opacity:0.5"></rect></g><rect x="198.82" y="192.64" width="28.03" height="20.55" transform="translate(-20.88 24.45) rotate(-6.27)" style="fill:none;stroke:#263238;stroke-linecap:round;stroke-linejoin:round"></rect><path d="M199.33,208.33s2.59-4.76,5.16-5.05,6.93,5.12,11.08,5.05,6.91-4.93,11.65-2.84" style="fill:none;stroke:#263238;stroke-linecap:round;stroke-linejoin:round"></path><path d="M218.66,195.69a3.16,3.16,0,0,1-2.51,4.67H216a3.16,3.16,0,1,0,2.67-4.66Z" style="fill:none;stroke:#263238;stroke-linecap:round;stroke-linejoin:round"></path><rect x="230.11" y="189.06" width="28.03" height="20.55" transform="translate(-20.31 27.85) rotate(-6.27)" style="fill:#92E3A9"></rect><g style="clip-path:url(#freepik--clip-path-8--inject-2)"><rect x="230.11" y="189.06" width="28.03" height="20.55" transform="translate(-20.31 27.85) rotate(-6.27)" style="fill:#fff;stroke:#263238;stroke-linecap:round;stroke-linejoin:round;opacity:0.5"></rect></g><rect x="230.11" y="189.06" width="28.03" height="20.55" transform="translate(-20.31 27.85) rotate(-6.27)" style="fill:none;stroke:#263238;stroke-linecap:round;stroke-linejoin:round"></rect><polyline points="230.27 201.52 242.18 200.34 248.44 204 258.59 202.92" style="fill:none;stroke:#263238;stroke-linecap:round;stroke-linejoin:round"></polyline><polygon points="250.43 191.22 251.62 192.91 253.69 192.89 252.45 194.55 253.11 196.51 251.15 195.84 249.48 197.07 249.52 195 247.83 193.8 249.81 193.19 250.43 191.22" style="fill:none;stroke:#263238;stroke-linecap:round;stroke-linejoin:round"></polygon><rect x="261.41" y="185.48" width="28.03" height="20.55" transform="translate(-19.73 31.25) rotate(-6.27)" style="fill:#92E3A9"></rect><g style="clip-path:url(#freepik--clip-path-9--inject-2)"><rect x="261.41" y="185.48" width="28.03" height="20.55" transform="translate(-19.73 31.25) rotate(-6.27)" style="fill:#fff;stroke:#263238;stroke-linecap:round;stroke-linejoin:round;opacity:0.5"></rect></g><rect x="261.41" y="185.48" width="28.03" height="20.55" transform="translate(-19.73 31.25) rotate(-6.27)" style="fill:none;stroke:#263238;stroke-linecap:round;stroke-linejoin:round"></rect><line x1="261.82" y1="200.26" x2="289.55" y2="197.11" style="fill:none;stroke:#263238;stroke-linecap:round;stroke-linejoin:round"></line><path d="M284.61,190.37a3.05,3.05,0,1,1-3.56-2.44A3.06,3.06,0,0,1,284.61,190.37Z" style="fill:none;stroke:#263238;stroke-linecap:round;stroke-linejoin:round"></path><rect x="192.33" y="109" width="91.06" height="66.75" transform="translate(-14.12 26.82) rotate(-6.27)" style="fill:#92E3A9"></rect><g style="clip-path:url(#freepik--clip-path-10--inject-2)"><polygon points="194.15 161.42 215.9 140.32 231.8 151 241.08 142.01 285.89 162.7 286.75 170.57 196.24 180.51 194.15 161.42" style="fill:#757575;opacity:0.4"></polygon><path d="M267,126a6.5,6.5,0,1,1-7.17-5.75A6.5,6.5,0,0,1,267,126Z" style="fill:#fff;opacity:0.4"></path><polygon points="194.15 161.42 215.9 140.32 231.8 151 241.08 142.01 285.89 162.7 286.75 170.57 196.24 180.51 194.15 161.42" style="fill:none;stroke:#263238;stroke-linecap:round;stroke-linejoin:round"></polygon><path d="M267,126a6.5,6.5,0,1,1-7.17-5.75A6.5,6.5,0,0,1,267,126Z" style="fill:none;stroke:#263238;stroke-linecap:round;stroke-linejoin:round"></path></g><rect x="192.33" y="109" width="91.06" height="66.75" transform="translate(-14.12 26.82) rotate(-6.27)" style="fill:none;stroke:#263238;stroke-linecap:round;stroke-linejoin:round"></rect><path d="M231.82,100.25l1.14,3.86s-2.9,2-1.14,3.36l1.76,1.41s-1.18,4.13.79,5.22,8.51-.32,10.09-2.77-3.87-5-3.87-5,1.6-2,.71-2.93-4.06-.53-4.06-.53l-2.17-3.66Z" style="fill-opacity:0.7000000000000001;opacity:0.30000000000000004"></path><ellipse cx="232.96" cy="90.98" rx="7.34" ry="6.88" style="fill:#263238"></ellipse><path d="M239.73,96.77c0,2.76-3,5-6.77,5s-6.77-2.23-6.77-5,3-5,6.77-5S239.73,94,239.73,96.77Z" style="fill:#263238"></path><path d="M237,95.52a6.15,6.15,0,0,0,1.91-2.24" style="fill:none;stroke:#fff;stroke-linecap:round;stroke-linejoin:round"></path><path d="M227.15,93.58A7,7,0,0,0,233,96.77" style="fill:none;stroke:#fff;stroke-linecap:round;stroke-linejoin:round"></path><path d="M300.23,218.53s4.22-7.18,2.11-11.53-5.79-14.38-5.57-19c0,0-4.07,0-2.87,6.37a24.49,24.49,0,0,1,0,7s-2.39,7.52-.41,12.17" style="fill:#fff;stroke:#263238;stroke-linecap:round;stroke-linejoin:round"></path><path d="M330.85,246.2a13.72,13.72,0,0,1,1.56,7.61" style="fill:none;stroke:#263238;stroke-linecap:round;stroke-linejoin:round"></path><path d="M418.26,255.48l-2.37-2.11-2,3.21-.26-4a4.84,4.84,0,0,0-.55-2l3.93-2.1.34.32a8.07,8.07,0,0,1,.72,2.87Z" style="fill:#fff;stroke:#263238;stroke-linecap:round;stroke-linejoin:round"></path><path d="M411.16,251.93c1.61-.88,5.31-2.92,7.65-4.11.16-.08.05-.45-.12-.4a15,15,0,0,0-7.71,4.24C410.88,251.77,411,252,411.16,251.93Z" style="fill:#263238"></path></g></svg>